<?xml version="1.0" encoding="utf-8"?>
<!-- Generator: Adobe Illustrator 19.1.0, SVG Export Plug-In . SVG Version: 6.00 Build 0)  -->
<!DOCTYPE svg PUBLIC "-//W3C//DTD SVG 1.1//EN" "http://www.w3.org/Graphics/SVG/1.1/DTD/svg11.dtd">
<svg version="1.1" id="Layer_1" xmlns="http://www.w3.org/2000/svg" xmlns:xlink="http://www.w3.org/1999/xlink" x="0px" y="0px"
	 viewBox="0 0 180 32" style="enable-background:new 0 0 180 32;" xml:space="preserve">
<style type="text/css">
	.st0{fill:#FFFFFF;}
	.st1{fill:#252F6C;}
	.st2{fill:#EA1D25;}
</style>
<g>
	<g>
		<path class="st0" d="M178.5,0.9L174.8,2l-8.5,2.4c0,0-0.5,2.1-0.6,2.8c-0.2,0-2.4,0-2.4,0l-0.3,1.3c-1.4-1.1-3.3-1.6-5.6-1.6
			c-4.7,0-7.7,1.4-9.6,3.3c-0.8-1.5-2.5-3.3-6.2-3.3c-0.5,0-1,0.1-1.4,0.1c0.3-1.6,1.3-6,1.3-6h-11.4l-1.3,6.2H120l0,0.1
			c-0.8-0.3-1.7-0.5-2.8-0.5c-2.7,0-5,1-6.8,2.9c0,0,0,0-0.1,0.1c-0.2-0.4-0.4-0.7-0.6-1c-1.1-1.4-2.8-2.1-5.2-2.1
			c-0.9,0-1.7,0.1-2.5,0.3h-8.3c0.3-1.3,1.2-6.2,1.2-6.2H83.6L71.5,4.4c0,0-0.4,1.9-0.6,2.6l-0.1,0c-0.5-0.2-1.1-0.2-1.7-0.2
			c-0.7,0-1.4,0.1-2.1,0.3c-0.7,0-10.5,0-10.5,0L56,9.5c-1.6-1.9-4.3-2.8-8.1-2.8c-4.7,0-7.7,1.4-9.6,3.4c-0.8-1.6-2.5-3.4-6.2-3.4
			c-0.8,0-1.6,0.1-2.3,0.3c-0.7,0-10.4,0-10.4,0l-0.1,0.4l-0.4-0.1c-1.9-0.4-3.8-0.6-5.4-0.6c-8,0-10.5,3.6-11.1,6.6
			c-0.1,0.5-0.1,1-0.1,1.4c0,0.3,0,0.5,0.1,0.8c-0.1,0.7-1.9,9.1-1.9,9.1l2.1,0.6C4.5,25.7,6.6,26,8.6,26c2.3,0,4.4-0.4,6.2-1.3
			c0.3-0.1,0.6-0.3,0.8-0.4l-1.5,7h11.4c0,0,0.8-3.8,1.2-5.7c0.7,0.2,1.5,0.4,2.3,0.4c2.6,0,4.9-1,6.7-2.8c0.2-0.2,0.5-0.5,0.6-0.7
			c0.2,0.3,0.4,0.6,0.7,0.9c1.7,1.8,4.2,2.7,7.7,2.7c3.3,0,6-0.8,8.2-2.4l-0.5,2.1h11.3l1.5-6.9c0.1-0.6,0.4-1,0.8-1.4
			c0.6-0.5,0.9-0.5,1.1-0.5c0.5,0,1.4,0.3,1.4,0.3c-0.1,0.3-0.1,0.6-0.1,0.6c-0.2,0.8-0.3,1.6-0.3,2.3c0,1.6,0.4,2.8,1.2,3.9
			c1.1,1.4,2.9,2.1,5.3,2.1c1.3,0,3.4-0.3,3.4-0.3h27.9c-0.5,2.3-0.9,4.4-0.9,4.4l2,0.6c2.1,0.6,4.6,1,7.8,1c6.7,0,10-2.8,11.6-6
			h9.2c0,0,0-0.1,0-0.1c0.8,0.3,1.6,0.5,2.6,0.5c2.8,0,5.1-1,6.9-3c0.2-0.2,0.4-0.4,0.5-0.6c0.2,0.3,0.5,0.6,0.7,0.9
			c1.7,1.8,4.2,2.7,7.7,2.7c2.7,0,5.1-0.3,7.1-0.9l1.3-0.4c0,0,0.3-1.6,0.6-2.9c0.2,0.8,0.6,1.5,1,2.1c1.1,1.4,2.9,2.1,5.3,2.1
			c1.6,0,3.4-0.3,5.4-0.8l1.3-0.4L180.2,7c0,0-3,0-3.1,0C177.4,5.9,178.5,0.9,178.5,0.9z"/>
	</g>
	<path class="st1" d="M2.8,23.1l0.9-4c1.2,0.8,2.8,1.3,4.7,1.3c1.7,0,2.5-0.3,2.7-0.9c0.1-0.4-0.5-0.7-1.8-1
		c-1.7-0.3-2.9-0.7-3.5-1.1c-1.2-0.7-1.7-1.9-1.3-3.4c0.7-3.2,3.6-4.7,8.9-4.7c1.5,0,3.1,0.2,4.9,0.6l-0.8,3.8
		c-1.5-0.6-2.8-0.8-4.2-0.8c-1.6,0-2.4,0.3-2.5,1c-0.1,0.3,0.6,0.6,1.9,0.8c1.7,0.2,2.9,0.6,3.5,1c1.2,0.7,1.7,1.8,1.3,3.4
		c-0.4,1.8-1.6,3.2-3.5,4c-1.5,0.7-3.3,1.1-5.3,1.1C6.7,23.9,4.8,23.6,2.8,23.1z"/>
	<path class="st1" d="M16.9,29.2l4.2-19.7h6.2l-0.6,2.6h0c1.3-1.9,3-2.9,5.1-2.9s3.5,0.7,4.3,2.3c0.6,1.3,0.7,3.1,0.3,5.3
		c-0.5,2.1-1.2,3.7-2.5,5c-1.4,1.4-3,2.1-5,2.1c-1.8,0-3.1-0.7-3.8-2.1l-1.6,7.5L16.9,29.2L16.9,29.2z M26.1,16.6
		c-0.4,2.1-0.1,3.1,1.1,3.1c1.1,0,1.9-1,2.3-2.9c0.4-2,0.1-3-1.1-3C27.3,13.7,26.5,14.7,26.1,16.6z"/>
	<path class="st1" d="M37.6,16.3c1-4.7,4.4-7.1,10.2-7.1c5.8,0,8.2,2.4,7.2,7.1c-0.5,2.4-1.7,4.3-3.4,5.7c-1.8,1.3-4,2-6.8,2
		c-2.8,0-4.8-0.6-6-2C37.5,20.6,37.1,18.7,37.6,16.3z M44.9,16.3c-0.3,1.2-0.4,2-0.3,2.5c0.1,0.7,0.4,1,1,1c0.7,0,1.2-0.5,1.7-1.3
		c0.2-0.5,0.4-1.2,0.6-2.2c0.4-2,0.1-3.1-0.9-3.1c-0.6,0-1.1,0.3-1.4,0.9C45.3,14.5,45,15.3,44.9,16.3z"/>
	<path class="st1" d="M57.8,9.5h6.4l-0.7,3.2c1.4-2.3,3.1-3.5,5-3.5c0.4,0,0.8,0,1.1,0.1l-1.2,5.7c-0.3-0.1-0.8-0.2-1.5-0.2
		c-1,0-1.8,0.4-2.7,1.1c-0.8,0.7-1.4,1.6-1.6,2.6l-1.1,5.1h-6.8L57.8,9.5z"/>
	<path class="st1" d="M70.4,9.5h2.4l0.7-3.2l7.2-2.1l-1.1,5.3h3.1l-0.9,4h-3.1l-0.8,4c-0.3,1.2,0.1,1.8,1.1,1.8
		c0.6,0,1.1-0.1,1.7-0.3l-0.9,4c-1.7,0.5-3.4,0.7-4.8,0.7c-3.4,0-4.8-1.8-4-5.5l1-4.9h-2.4L70.4,9.5z"/>
	<path class="st1" d="M81.1,23.5l3-14.1h6.8l-3,14.1H81.1z M92.1,3.3l-1,4.7h-6.8l1-4.7H92.1z"/>
	<path class="st1" d="M90.4,23.5l3-14.1h6.4l-0.5,2.4h0c1.1-1.8,2.8-2.8,5.1-2.8c3.3,0,4.5,1.5,3.9,4.6l-2.1,9.8h-6.8l1.7-8.1
		c0.1-0.6,0.2-1,0.1-1.3c-0.1-0.4-0.4-0.6-0.9-0.6s-0.9,0.2-1.2,0.6c-0.2,0.2-0.3,0.7-0.4,1.3l-1.7,8.1L90.4,23.5L90.4,23.5z"/>
	<path class="st1" d="M108,28.7l1-4.5c1.3,0.9,3,1.3,5,1.3c2.9,0,4.7-1.4,5.3-4.3c-1.4,1.6-3.1,2.3-5.1,2.3c-2,0-3.4-0.7-4.1-2.1
		c-0.7-1.2-0.8-2.8-0.4-4.9c0.5-2.2,1.3-3.9,2.5-5.2c1.3-1.5,3-2.2,5.1-2.2c1.2,0,2.2,0.3,2.9,0.8c0.7,0.6,1.1,1.3,1.1,2.4h0
		l0.6-2.8h6.3l-2.7,12.6c-1.1,4.9-4.5,7.4-10.5,7.4C112.2,29.5,109.8,29.2,108,28.7z M116.8,16.4c-0.4,1.9,0,2.8,1.1,2.8
		c1.2,0,2-0.9,2.3-2.7c0.4-1.9,0-2.9-1.1-2.9C118,13.5,117.3,14.5,116.8,16.4z"/>
	<path class="st2" d="M127.7,23.5l4.3-20.2h6.8l-1.7,8c1.3-1.4,2.8-2.1,4.7-2.1c2,0,3.4,0.7,4.1,2.1c0.6,1.2,0.8,2.9,0.3,5
		c-0.5,2.3-1.3,4-2.5,5.3c-1.4,1.5-3.1,2.3-5.2,2.3c-2.2,0-3.4-1-3.9-2.9h0l-0.6,2.6L127.7,23.5L127.7,23.5z M135.8,16.5
		c-0.4,1.9,0,2.9,1.1,2.9c1.1,0,1.9-1,2.3-3c0.4-1.9,0-2.9-1.1-2.9C137.1,13.4,136.3,14.4,135.8,16.5z"/>
	<path class="st2" d="M162.9,18.2h-9.4c-0.2,1.4,0.9,2.2,3.3,2.2c1.9,0,3.5-0.3,4.8-0.9l-0.8,3.6c-1.8,0.6-4,0.8-6.5,0.8
		c-2.8,0-4.8-0.6-6-2s-1.6-3.2-1-5.7c1-4.7,4.4-7.1,10.2-7.1c4.9,0,6.8,2.7,5.6,8.1L162.9,18.2z M154.2,15.2h3.5
		c0.4-1.8,0-2.8-1.1-2.8c-0.7,0-1.3,0.3-1.7,1C154.5,13.9,154.2,14.5,154.2,15.2z"/>
	<path class="st2" d="M165.2,9.5h2.4l0.7-3.2l7.2-2.1l-1.1,5.3h3.1l-0.9,4h-3.1l-0.8,4c-0.3,1.2,0.1,1.8,1.1,1.8
		c0.6,0,1.1-0.1,1.7-0.3l-0.9,4c-1.7,0.5-3.4,0.7-4.8,0.7c-3.4,0-4.8-1.8-4-5.5l1-4.9h-2.4L165.2,9.5z"/>
</g>
</svg>
